{
  "accessors": [
    {
      "bufferView": 2,
      "componentType": 5126,
      "count": 814,
      "max": [
        0.2275390625,
        -0.488525390625,
        -2.746826171875
      ],
      "min": [
        -0.14501953125,
        -1.094482421875,
        -3.015380859375
      ],
      "type": "VEC3"
    },
    {
      "bufferView": 2,
      "byteOffset": 9768,
      "componentType": 5126,
      "count": 814,
      "max": [
        0.989002525806427,
        0.9702813029289246,
        0.998353898525238
      ],
      "min": [
        -0.998738706111908,
        -0.9769613146781921,
        -0.9830945134162903
      ],
      "type": "VEC3"
    },
    {
      "bufferView": 3,
      "componentType": 5126,
      "count": 814,
      "max": [
        1.0,
        1.0,
        1.0,
        1.0
      ],
      "min": [
        0.5568627715110779,
        0.5568627715110779,
        0.5568627715110779,
        1.0
      ],
      "type": "VEC4"
    },
    {
      "bufferView": 1,
      "componentType": 5126,
      "count": 814,
      "max": [
        0.9990234375,
        1.0
      ],
      "min": [
        0.0048828125,
        0.0087890625
      ],
      "type": "VEC2"
    },
    {
      "bufferView": 0,
      "componentType": 5125,
      "count": 1146,
      "type": "SCALAR"
    },
    {
      "bufferView": 2,
      "byteOffset": 19536,
      "componentType": 5126,
      "count": 292,
      "max": [
        0.13330078125,
        -0.72900390625,
        -2.57080078125
      ],
      "min": [
        -0.122314453125,
        -1.500244140625,
        -2.982177734375
      ],
      "type": "VEC3"
    },
    {
      "bufferView": 2,
      "byteOffset": 23040,
      "componentType": 5126,
      "count": 292,
      "max": [
        0.9939911365509033,
        0.8900768756866455,
        0.9772999882698059
      ],
      "min": [
        -0.976301908493042,
        -0.9998999834060669,
        -0.9800781011581421
      ],
      "type": "VEC3"
    },
    {
      "bufferView": 3,
      "byteOffset": 13024,
      "componentType": 5126,
      "count": 292,
      "max": [
        1.0,
        1.0,
        1.0,
        1.0
      ],
      "min": [
        0.5568627715110779,
        0.5568627715110779,
        0.5568627715110779,
        1.0
      ],
      "type": "VEC4"
    },
    {
      "bufferView": 1,
      "byteOffset": 6512,
      "componentType": 5126,
      "count": 292,
      "max": [
        0.9931640625,
        1.994140625
      ],
      "min": [
        -0.1201171875,
        1.017578125
      ],
      "type": "VEC2"
    },
    {
      "bufferView": 0,
      "byteOffset": 4584,
      "componentType": 5125,
      "count": 372,
      "type": "SCALAR"
    },
    {
      "bufferView": 2,
      "byteOffset": 26544,
      "componentType": 5126,
      "count": 356,
      "max": [
        0.19775390625,
        -0.7353515625,
        -2.574462890625
      ],
      "min": [
        -0.174072265625,
        -1.4501953125,
        -2.944091796875
      ],
      "type": "VEC3"
    },
    {
      "bufferView": 2,
      "byteOffset": 30816,
      "componentType": 5126,
      "count": 356,
      "max": [
        0.9830672740936279,
        0.967189371585846,
        0.954087495803833
      ],
      "min": [
        -0.9678706526756287,
        -0.8651951551437378,
        -0.8973772525787354
      ],
      "type": "VEC3"
    },
    {
      "bufferView": 3,
      "byteOffset": 17696,
      "componentType": 5126,
      "count": 356,
      "max": [
        1.0,
        1.0,
        1.0,
        1.0
      ],
      "min": [
        0.5568627715110779,
        0.5568627715110779,
        0.5568627715110779,
        1.0
      ],
      "type": "VEC4"
    },
    {
      "bufferView": 1,
      "byteOffset": 8848,
      "componentType": 5126,
      "count": 356,
      "max": [
        -0.0166015625,
        0.9912109375
      ],
      "min": [
        -0.984375,
        0.0009765625
      ],
      "type": "VEC2"
    },
    {
      "bufferView": 0,
      "byteOffset": 6072,
      "componentType": 5125,
      "count": 468,
      "type": "SCALAR"
    }
  ],
  "asset": {
    "extras": {
      "author": "Willy The Bee Pibby (https://sketchfab.com/PaddyMcClellan)",
      "license": "CC-BY-4.0 (http://creativecommons.org/licenses/by/4.0/)",
      "source": "https://sketchfab.com/3d-models/wilbur-from-meet-the-robinson-nds-081dc0de319f471592db461c25b6399d",
      "title": "Wilbur From Meet The Robinson NDS"
    },
    "generator": "Sketchfab-15.37.0",
    "version": "2.0"
  },
  "bufferViews": [
    {
      "buffer": 0,
      "byteLength": 7944,
      "name": "floatBufferViews",
      "target": 34963
    },
    {
      "buffer": 0,
      "byteLength": 11696,
      "byteOffset": 7944,
      "byteStride": 8,
      "name": "floatBufferViews",
      "target": 34962
    },
    {
      "buffer": 0,
      "byteLength": 35088,
      "byteOffset": 19640,
      "byteStride": 12,
      "name": "floatBufferViews",
      "target": 34962
    },
    {
      "buffer": 0,
      "byteLength": 23392,
      "byteOffset": 54728,
      "byteStride": 16,
      "name": "floatBufferViews",
      "target": 34962
    }
  ],
  "buffers": [
    {
      "byteLength": 78120,
      "uri": "scene.bin"
    }
  ],
  "images": [
    {
      "uri": "textures/NDS_Material.157_baseColor.png"
    },
    {
      "uri": "textures/NDS_Material.158_baseColor.png"
    },
    {
      "uri": "textures/NDS_Material.159_baseColor.png"
    }
  ],
  "materials": [
    {
      "name": "NDS_Material.157",
      "pbrMetallicRoughness": {
        "baseColorTexture": {
          "index": 0
        },
        "metallicFactor": 0.0,
        "roughnessFactor": 0.9
      }
    },
    {
      "name": "NDS_Material.158",
      "pbrMetallicRoughness": {
        "baseColorTexture": {
          "index": 1
        },
        "metallicFactor": 0.0,
        "roughnessFactor": 0.9
      }
    },
    {
      "name": "NDS_Material.159",
      "pbrMetallicRoughness": {
        "baseColorTexture": {
          "index": 2
        },
        "metallicFactor": 0.0,
        "roughnessFactor": 0.9
      }
    }
  ],
  "meshes": [
    {
      "name": "Object_0",
      "primitives": [
        {
          "attributes": {
            "COLOR_0": 2,
            "NORMAL": 1,
            "POSITION": 0,
            "TEXCOORD_0": 3
          },
          "indices": 4,
          "material": 0,
          "mode": 4
        }
      ]
    },
    {
      "name": "Object_1",
      "primitives": [
        {
          "attributes": {
            "COLOR_0": 7,
            "NORMAL": 6,
            "POSITION": 5,
            "TEXCOORD_0": 8
          },
          "indices": 9,
          "material": 1,
          "mode": 4
        }
      ]
    },
    {
      "name": "Object_2",
      "primitives": [
        {
          "attributes": {
            "COLOR_0": 12,
            "NORMAL": 11,
            "POSITION": 10,
            "TEXCOORD_0": 13
          },
          "indices": 14,
          "material": 2,
          "mode": 4
        }
      ]
    }
  ],
  "nodes": [
    {
      "children": [
        1
      ],
      "matrix": [
        1.0,
        0.0,
        0.0,
        0.0,
        0.0,
        2.220446049250313e-16,
        -1.0,
        0.0,
        0.0,
        1.0,
        2.220446049250313e-16,
        0.0,
        0.0,
        0.0,
        0.0,
        1.0
      ],
      "name": "Sketchfab_model"
    },
    {
      "children": [
        2
      ],
      "name": "root"
    },
    {
      "children": [
        3
      ],
      "matrix": [
        1.0,
        0.0,
        0.0,
        0.0,
        0.0,
        2.220446049250313e-16,
        1.0,
        0.0,
        0.0,
        -1.0,
        2.220446049250313e-16,
        0.0,
        0.0,
        0.0,
        0.0,
        1.0
      ],
      "name": "GLTF_SceneRootNode"
    },
    {
      "children": [
        4,
        5,
        6
      ],
      "matrix": [
        -0.9999957860890496,
        0.0,
        0.002903068057116022,
        0.0,
        -0.0,
        1.0,
        0.0,
        0.0,
        -0.002903068057116022,
        0.0,
        -0.9999957860890496,
        0.0,
        0.0,
        1.5148305892944336,
        -2.8064234256744385,
        1.0
      ],
      "name": "mtrobinsons-2023-09-24-08-34-41_0"
    },
    {
      "mesh": 0,
      "name": "Object_4"
    },
    {
      "mesh": 1,
      "name": "Object_5"
    },
    {
      "mesh": 2,
      "name": "Object_6"
    }
  ],
  "samplers": [
    {
      "magFilter": 9729,
      "minFilter": 9987,
      "wrapS": 10497,
      "wrapT": 10497
    }
  ],
  "scene": 0,
  "scenes": [
    {
      "name": "Sketchfab_Scene",
      "nodes": [
        0
      ]
    }
  ],
  "textures": [
    {
      "sampler": 0,
      "source": 0
    },
    {
      "sampler": 0,
      "source": 1
    },
    {
      "sampler": 0,
      "source": 2
    }
  ]
}
